<?xml version="1.0" standalone="no"?>
<!DOCTYPE svg PUBLIC "-//W3C//DTD SVG 20010904//EN"
 "http://www.w3.org/TR/2001/REC-SVG-20010904/DTD/svg10.dtd">
<svg version="1.0" xmlns="http://www.w3.org/2000/svg"
 width="250.000000pt" height="250.000000pt" viewBox="0 0 250.000000 250.000000"
 preserveAspectRatio="xMidYMid meet">
<metadata>
Created by potrace 1.14, written by Peter Selinger 2001-2017
</metadata>
<g transform="translate(0.000000,250.000000) scale(0.100000,-0.100000)"
fill="#000000" stroke="none">
<path d="M223 2492 l-223 -2 0 -1245 0 -1245 1250 0 1250 0 0 1250 0 1250
-1027 -2 c-566 -2 -1128 -4 -1250 -6z m1581 -847 c70 -173 126 -319 124 -325
-2 -6 -59 127 -128 295 -69 168 -127 305 -130 305 -3 0 -61 -138 -129 -307
-69 -168 -127 -301 -129 -294 -4 13 249 641 259 641 3 0 63 -142 133 -315z
m-922 284 c68 -22 130 -79 168 -153 31 -62 35 -77 35 -150 0 -72 -4 -89 -33
-148 -38 -77 -93 -129 -161 -153 -56 -20 -191 -32 -191 -18 0 6 35 12 78 15
128 8 211 60 264 166 18 38 23 63 23 137 0 78 -4 97 -27 141 -30 58 -91 116
-145 140 -27 12 -77 18 -170 22 l-133 4 0 -310 c0 -197 -4 -313 -10 -317 -7
-4 -10 105 -10 321 l0 327 138 -6 c75 -3 154 -11 174 -18z m-39 -123 c78 -32
126 -135 106 -226 -23 -102 -87 -151 -195 -149 l-59 1 73 12 c39 7 84 21 100
32 37 27 72 99 72 149 0 54 -37 124 -79 152 -26 17 -48 23 -92 23 l-59 0 0
-126 c0 -81 -4 -123 -10 -119 -11 7 -14 247 -3 258 11 12 113 7 146 -7z m856
-237 c11 -29 21 -56 21 -60 0 -5 -24 -8 -52 -7 -52 1 -52 2 -9 5 47 5 47 5 17
76 -9 20 -12 37 -7 37 4 0 18 -23 30 -51z m90 -221 c15 -42 6 -48 -14 -9 l-16
31 -89 0 -89 0 -16 -31 c-21 -39 -29 -33 -13 9 l12 32 107 0 107 0 11 -32z
m-14 -214 c57 -26 79 -44 117 -94 29 -39 52 -90 40 -90 -4 0 -14 15 -20 34
-16 44 -79 109 -134 138 -62 33 -204 33 -265 1 -94 -51 -153 -150 -153 -258 0
-115 64 -215 168 -263 76 -34 183 -29 261 14 54 29 117 98 127 141 4 13 10 23
15 23 22 0 -39 -102 -86 -143 -85 -75 -237 -92 -342 -39 -57 30 -117 100 -138
162 -23 70 -17 188 13 246 73 141 248 198 397 128z m-1112 -141 l97 -157 0
-130 c0 -88 -3 -126 -10 -116 -5 8 -10 68 -10 132 l0 117 -95 151 c-52 83 -95
153 -95 156 0 20 29 -19 113 -153z m96 57 c55 -94 41 -98 116 30 46 77 44 75
50 68 8 -7 -104 -198 -116 -198 -9 0 -119 181 -119 196 0 16 22 -15 69 -96z
m305 88 c-4 -7 -48 -78 -98 -158 l-91 -145 -6 -135 -5 -135 -2 137 -2 137 98
155 c53 86 101 156 105 156 5 0 5 -6 1 -12z m651 -107 c105 -47 143 -172 81
-264 -66 -98 -196 -112 -274 -30 -18 20 -31 38 -28 41 3 3 15 -7 27 -22 52
-66 163 -78 230 -24 34 28 59 83 59 132 0 153 -171 227 -278 120 -40 -40 -52
-40 -20 1 26 33 91 65 133 65 17 0 48 -9 70 -19z"/>
</g>
</svg>
